<svg width="30" height="30" viewBox="0 0 30 30" fill="none" xmlns="http://www.w3.org/2000/svg">
<g clip-path="url(#clip0_1320_25955)">
<path d="M27.5719 6.53747L18.3544 2.14622C16.3254 0.934268 13.8 0.912764 11.7506 2.08997L2.42944 6.53747C2.39446 6.55499 2.35819 6.57374 2.32444 6.59372C0.112407 7.85853 -0.655523 10.6771 0.609282 12.8891C1.03801 13.639 1.66866 14.2534 2.42944 14.6625L5.00071 15.8875V22.0125C5.00223 24.7513 6.78436 27.171 9.39946 27.985C11.2193 28.5115 13.1063 28.7692 15.0007 28.75C16.8948 28.7712 18.7818 28.5156 20.602 27.9913C23.2171 27.1774 24.9992 24.7576 25.0007 22.0188V15.885L27.5008 14.69V25C27.5008 25.6903 28.0604 26.2499 28.7507 26.2499C29.4411 26.2499 30.0007 25.6903 30.0007 25V9.99995C30.009 8.53212 28.8501 7.17614 27.5719 6.53747ZM22.5007 22.0188C22.5013 23.657 21.4384 25.1061 19.8757 25.5975C18.2909 26.0503 16.6487 26.2701 15.0007 26.25C13.3526 26.2701 11.7104 26.0503 10.1257 25.5975C8.56291 25.106 7.50002 23.657 7.50067 22.0188V17.0788L11.6469 19.0538C12.67 19.6613 13.8384 19.9805 15.0282 19.9775C16.1607 19.9856 17.2742 19.6857 18.2495 19.11L22.5007 17.0787V22.0188ZM26.5007 12.4062L17.0732 16.9062C15.7587 17.6716 14.1294 17.65 12.8357 16.85L3.61192 12.4625C2.58377 11.9081 2.19975 10.6251 2.75416 9.59706C2.94166 9.24937 3.2228 8.96114 3.56569 8.76497L12.9344 4.28999C14.2493 3.52628 15.8778 3.5479 17.1719 4.34624L26.3894 8.73749C27.0673 9.1139 27.4914 9.8247 27.5007 10.6C27.5019 11.3344 27.1237 12.0174 26.5007 12.4062Z" fill="#F9F9F9"/>
</g>
<defs>
<clipPath id="clip0_1320_25955">
<rect width="30" height="30" fill="white"/>
</clipPath>
</defs>
</svg>
