<svg width="330" height="424" viewBox="0 0 330 424" fill="none" xmlns="http://www.w3.org/2000/svg">
<rect x="65.9475" y="316.634" width="148.594" height="148.594" transform="rotate(-60 65.9475 316.634)" stroke="#C05640" stroke-opacity="0.3" stroke-width="3"/>
<rect x="88.8176" y="310.431" width="114.906" height="114.906" transform="rotate(-60 88.8176 310.431)" stroke="#C05640" stroke-opacity="0.3" stroke-width="3"/>
<rect x="112.855" y="303.554" width="81.2188" height="81.2188" transform="rotate(-60 112.855 303.554)" stroke="#C05640" stroke-opacity="0.3" stroke-width="3"/>
<rect x="136.185" y="297.476" width="47.5313" height="47.5313" transform="rotate(-60 136.185 297.476)" stroke="#C05640" stroke-opacity="0.3" stroke-width="3"/>
<rect x="159.056" y="291.273" width="13.8438" height="13.8438" transform="rotate(-60 159.056 291.273)" stroke="#C05640" stroke-opacity="0.3" stroke-width="3"/>
<path d="M111.835 35.2775C125.963 31.4919 138.891 44.4198 135.106 58.5476L104.002 174.628C100.216 188.756 82.5564 193.488 72.2141 183.146L-12.7629 98.1689C-23.1052 87.8266 -18.3733 70.1668 -4.24545 66.3812L111.835 35.2775Z" stroke="url(#paint0_linear_601_201)" stroke-opacity="0.3" stroke-width="2"/>
<path d="M97.834 48.6599C111.962 44.8744 124.89 57.8022 121.104 71.9301L98.9159 154.738C95.1304 168.866 77.4706 173.598 67.1283 163.255L6.50884 102.636C-3.83345 92.2935 0.898472 74.6337 15.0263 70.8482L97.834 48.6599Z" stroke="url(#paint1_linear_601_201)" stroke-opacity="0.3" stroke-width="2"/>
<path d="M83.6559 63.6332C97.7837 59.8476 110.712 72.7755 106.926 86.9033L93.6533 136.438C89.8678 150.566 72.208 155.298 61.8657 144.955L25.6039 108.694C15.2616 98.3513 19.9935 80.6915 34.1213 76.9059L83.6559 63.6332Z" stroke="url(#paint2_linear_601_201)" stroke-opacity="0.3" stroke-width="2"/>
<path d="M69.8753 74.6289C84.0031 70.8434 96.931 83.7712 93.1454 97.8991L88.7882 114.161C85.0026 128.288 67.3428 133.02 57.0005 122.678L45.0963 110.774C34.754 100.431 39.486 82.7717 53.6138 78.9861L69.8753 74.6289Z" stroke="url(#paint3_linear_601_201)" stroke-opacity="0.3" stroke-width="2"/>
<path d="M64.204 86.5281C74.5514 83.7555 84.02 93.2241 81.2474 103.572C78.4748 113.919 65.5405 117.385 57.9656 109.81C50.3907 102.235 53.8565 89.3007 64.204 86.5281Z" stroke="url(#paint4_linear_601_201)" stroke-opacity="0.3" stroke-width="2"/>
<circle cx="300.5" cy="62.5" r="130.5" stroke="#C05640" stroke-opacity="0.3" stroke-width="2"/>
<circle cx="300.5" cy="62.5" r="114.062" stroke="#C05640" stroke-opacity="0.3" stroke-width="2"/>
<circle cx="302.474" cy="62.5" r="97.625" stroke="#C05640" stroke-opacity="0.3" stroke-width="2"/>
<circle cx="303.787" cy="62.5" r="81.1875" stroke="#C05640" stroke-opacity="0.3" stroke-width="2"/>
<circle cx="302.474" cy="62.5" r="64.75" stroke="#C05640" stroke-opacity="0.3" stroke-width="2"/>
<circle cx="303.787" cy="62.5" r="48.3125" stroke="#C05640" stroke-opacity="0.3" stroke-width="2"/>
<circle cx="303.787" cy="62.5" r="31.875" stroke="#C05640" stroke-opacity="0.3" stroke-width="2"/>
<circle cx="303.787" cy="62.5" r="15.4375" stroke="#C05640" stroke-opacity="0.3" stroke-width="2"/>
<defs>
<linearGradient id="paint0_linear_601_201" x1="145.037" y1="25.3458" x2="-9.65441" y2="180.037" gradientUnits="userSpaceOnUse">
<stop offset="0.75" stop-color="#2B4A52"/>
<stop offset="1" stop-color="#2B4A52" stop-opacity="0"/>
</linearGradient>
<linearGradient id="paint1_linear_601_201" x1="131.036" y1="38.7282" x2="4.46999" y2="165.294" gradientUnits="userSpaceOnUse">
<stop offset="0.75" stop-color="#2B4A52"/>
<stop offset="1" stop-color="#2B4A52" stop-opacity="0"/>
</linearGradient>
<linearGradient id="paint2_linear_601_201" x1="116.858" y1="53.7015" x2="18.4176" y2="152.142" gradientUnits="userSpaceOnUse">
<stop offset="0.75" stop-color="#2B4A52"/>
<stop offset="1" stop-color="#2B4A52" stop-opacity="0"/>
</linearGradient>
<linearGradient id="paint3_linear_601_201" x1="103.077" y1="64.6972" x2="32.7627" y2="135.012" gradientUnits="userSpaceOnUse">
<stop offset="0.75" stop-color="#2B4A52"/>
<stop offset="1" stop-color="#2B4A52" stop-opacity="0"/>
</linearGradient>
<linearGradient id="paint4_linear_601_201" x1="88.9" y1="78.8756" x2="46.7114" y2="121.064" gradientUnits="userSpaceOnUse">
<stop offset="0.75" stop-color="#2B4A52"/>
<stop offset="1" stop-color="#2B4A52" stop-opacity="0"/>
</linearGradient>
</defs>
</svg>
