<svg xmlns="http://www.w3.org/2000/svg" width="70" height="70" viewBox="0 0 70 70" fill="none">
  <path fillRule="evenodd" clipRule="evenodd" d="M56.2819 7.07807C62.345 11.6267 66.8899 18.0732 69.0245 25.528L69.2422 26.2896L59.5605 22.0363L59.4996 21.9248C57.0948 17.5386 53.5329 13.8682 49.2224 11.3213C45.0595 8.8612 40.1958 7.44831 35 7.44831C29.8039 7.44831 24.9402 8.8612 20.7773 11.3216C16.4671 13.8686 12.9049 17.5389 10.5005 21.9251L10.4389 22.0366C7.21402 23.4589 3.98494 24.8724 0.757812 26.2896L0.975864 25.528C3.11077 18.0725 7.65566 11.6267 13.7185 7.07807C19.6404 2.6345 27.0116 0 35 0C42.9884 0 50.3596 2.63483 56.2819 7.07807Z" fill="#2B4A52"/>
  <path fillRule="evenodd" clipRule="evenodd" d="M35 70.0002C54.3298 70.0002 70 54.4136 70 35.1863C70 33.4757 69.8739 31.7947 69.634 30.15L61.9764 26.7857L38.2855 16.3781C37.2522 15.9242 36.1287 15.6924 35 15.6924C33.8302 15.6924 32.7184 15.9381 31.7132 16.3797L8.02364 26.7864L0.366029 30.15C0.126138 31.7944 0 33.4757 0 35.1863C0 54.4136 15.6699 70.0002 35 70.0002ZM51.5737 46.9459C51.5737 52.1617 44.1534 56.3897 35 56.3897C25.8467 56.3897 18.4263 52.1617 18.4263 46.9459V40.4225L31.7132 46.2592C32.7184 46.7004 33.8302 46.9462 35 46.9462C36.1287 46.9462 37.2522 46.7147 38.2855 46.2605L51.5737 40.4228V46.9459ZM63.1087 32.26C63.2091 33.2219 63.2602 34.1981 63.2602 35.1863C63.2602 50.7112 50.6076 63.2962 35 63.2962C19.3921 63.2962 6.73977 50.7112 6.73977 35.1863C6.73977 34.1981 6.79094 33.2219 6.89133 32.2596L31.7132 43.1633C32.7184 43.6049 33.8302 43.8507 35 43.8507C36.1287 43.8507 37.2522 43.6192 38.2855 43.165L51.0535 37.5559L36.2552 29.9494V29.949C35.63 29.6816 35.192 29.0643 35.192 28.3442C35.192 27.3803 35.9778 26.5987 36.9468 26.5987C37.2826 26.5987 37.5961 26.6924 37.863 26.8551L55.1658 35.7494L63.1087 32.26Z" fill="#2B4A52"/>
</svg>
