<svg width="1769" height="1080" viewBox="0 0 1769 1080" fill="none" xmlns="http://www.w3.org/2000/svg">
<circle cx="1469" cy="360" r="300" fill="#F4EBDC" fill-opacity="0.05"/>
<circle cx="1469" cy="360" r="299.5" stroke="#2B4A52" stroke-opacity="0.3"/>
<circle cx="1469" cy="360" r="250" fill="#F4EBDC" fill-opacity="0.05"/>
<circle cx="1469" cy="360" r="249.5" stroke="#2B4A52" stroke-opacity="0.3"/>
<circle cx="1469" cy="360" r="200" fill="#F4EBDC" fill-opacity="0.05"/>
<circle cx="1469" cy="360" r="199.5" stroke="#2B4A52" stroke-opacity="0.3"/>
<circle cx="1469" cy="360" r="150" fill="#F4EBDC" fill-opacity="0.05"/>
<circle cx="1469" cy="360" r="149.5" stroke="#2B4A52" stroke-opacity="0.3"/>
<circle cx="1469" cy="360" r="50" fill="#F4EBDC" fill-opacity="0.05"/>
<circle cx="1469" cy="360" r="49.5" stroke="#2B4A52" stroke-opacity="0.3"/>
<circle cx="1469" cy="360" r="100" fill="#F4EBDC" fill-opacity="0.05"/>
<circle cx="1469" cy="360" r="99.5" stroke="#2B4A52" stroke-opacity="0.3"/>
<circle cx="491" r="400" fill="#F4EBDC" fill-opacity="0.05"/>
<circle cx="491" r="399" stroke="#C05640" stroke-opacity="0.3" stroke-width="2"/>
<circle cx="491" r="350" fill="#F4EBDC" fill-opacity="0.05"/>
<circle cx="491" r="349" stroke="#C05640" stroke-opacity="0.3" stroke-width="2"/>
<circle cx="497" r="300" fill="#F4EBDC" fill-opacity="0.05"/>
<circle cx="497" r="299" stroke="#C05640" stroke-opacity="0.3" stroke-width="2"/>
<circle cx="501" r="250" fill="#F4EBDC" fill-opacity="0.05"/>
<circle cx="501" r="249" stroke="#C05640" stroke-opacity="0.3" stroke-width="2"/>
<circle cx="497" r="200" fill="#F4EBDC" fill-opacity="0.05"/>
<circle cx="497" r="199" stroke="#C05640" stroke-opacity="0.3" stroke-width="2"/>
<circle cx="501" r="150" fill="#F4EBDC" fill-opacity="0.05"/>
<circle cx="501" r="149" stroke="#C05640" stroke-opacity="0.3" stroke-width="2"/>
<circle cx="501" r="100" fill="#F4EBDC" fill-opacity="0.05"/>
<circle cx="501" r="99" stroke="#C05640" stroke-opacity="0.3" stroke-width="2"/>
<circle cx="501" r="50" fill="#F4EBDC" fill-opacity="0.05"/>
<circle cx="501" r="49" stroke="#C05640" stroke-opacity="0.3" stroke-width="2"/>
<path d="M122.42 689.915C118.435 675.044 132.044 661.436 146.915 665.421L540.078 770.768C554.949 774.753 559.93 793.342 549.043 804.229L261.228 1092.04C250.342 1102.93 231.753 1097.95 227.768 1083.08L122.42 689.915Z" fill="#F4EBDC" fill-opacity="0.05"/>
<path d="M123.386 689.657C119.6 675.529 132.528 662.601 146.656 666.387L539.819 771.734C553.947 775.52 558.679 793.179 548.336 803.522L260.521 1091.34C250.179 1101.68 232.519 1096.95 228.734 1082.82L123.386 689.657Z" stroke="url(#paint0_linear_402_191)" stroke-opacity="0.3" stroke-width="2"/>
<path d="M156.065 725.116C152.08 710.245 165.688 696.637 180.56 700.622L490.071 783.555C504.942 787.54 509.923 806.129 499.036 817.016L272.459 1043.59C261.572 1054.48 242.983 1049.5 238.998 1034.63L156.065 725.116Z" fill="#F4EBDC" fill-opacity="0.05"/>
<path d="M157.031 724.858C153.245 710.73 166.173 697.802 180.301 701.588L489.812 784.521C503.94 788.306 508.672 805.966 498.329 816.308L271.752 1042.89C261.409 1053.23 243.749 1048.5 239.964 1034.37L157.031 724.858Z" stroke="url(#paint1_linear_402_191)" stroke-opacity="0.3" stroke-width="2"/>
<path d="M193.709 760.761C189.725 745.889 203.333 732.281 218.204 736.266L444.064 796.785C458.935 800.77 463.916 819.359 453.029 830.246L287.689 995.586C276.802 1006.47 258.213 1001.49 254.228 986.62L193.709 760.761Z" fill="#F4EBDC" fill-opacity="0.05"/>
<path d="M194.675 760.502C190.89 746.374 203.818 733.446 217.946 737.232L443.805 797.751C457.933 801.536 462.665 819.196 452.322 829.538L286.982 994.879C276.64 1005.22 258.98 1000.49 255.194 986.361L194.675 760.502Z" stroke="url(#paint2_linear_402_191)" stroke-opacity="0.3" stroke-width="2"/>
<path d="M221.354 795.405C217.369 780.534 230.978 766.926 245.849 770.91L388.057 809.015C402.928 813 407.909 831.589 397.023 842.476L292.919 946.579C282.033 957.465 263.443 952.484 259.459 937.613L221.354 795.405Z" fill="#F4EBDC" fill-opacity="0.05"/>
<path d="M222.32 795.146C218.534 781.019 231.462 768.091 245.59 771.876L387.798 809.981C401.926 813.766 406.658 831.426 396.315 841.768L292.212 945.872C281.87 956.214 264.21 951.482 260.424 937.354L222.32 795.146Z" stroke="url(#paint3_linear_402_191)" stroke-opacity="0.3" stroke-width="2"/>
<path d="M256.999 831.05C253.014 816.178 266.622 802.57 281.494 806.555L340.05 822.245C354.921 826.23 359.902 844.819 349.016 855.706L306.149 898.572C295.263 909.458 276.674 904.477 272.689 889.606L256.999 831.05Z" fill="#F4EBDC" fill-opacity="0.05"/>
<path d="M257.965 830.791C254.179 816.663 267.107 803.735 281.235 807.521L339.791 823.211C353.919 826.996 358.651 844.656 348.308 854.998L305.442 897.865C295.1 908.207 277.44 903.475 273.655 889.347L257.965 830.791Z" stroke="url(#paint4_linear_402_191)" stroke-opacity="0.3" stroke-width="2"/>
<rect x="862" y="919" width="450" height="450" transform="rotate(-30 862 919)" fill="#F4EBDC" fill-opacity="0.05"/>
<rect x="864.049" y="919.549" width="447" height="447" transform="rotate(-30 864.049 919.549)" stroke="#C05640" stroke-opacity="0.3" stroke-width="3"/>
<rect x="930" y="937" width="350" height="350" transform="rotate(-30 930 937)" fill="#F4EBDC" fill-opacity="0.05"/>
<rect x="932.049" y="937.549" width="347" height="347" transform="rotate(-30 932.049 937.549)" stroke="#C05640" stroke-opacity="0.3" stroke-width="3"/>
<rect x="1002" y="955" width="250" height="250" transform="rotate(-30 1002 955)" fill="#F4EBDC" fill-opacity="0.05"/>
<rect x="1004.05" y="955.549" width="247" height="247" transform="rotate(-30 1004.05 955.549)" stroke="#C05640" stroke-opacity="0.3" stroke-width="3"/>
<rect x="1071" y="974" width="150" height="150" transform="rotate(-30 1071 974)" fill="#F4EBDC" fill-opacity="0.05"/>
<rect x="1073.05" y="974.549" width="147" height="147" transform="rotate(-30 1073.05 974.549)" stroke="#C05640" stroke-opacity="0.3" stroke-width="3"/>
<rect x="1139" y="992" width="50" height="50" transform="rotate(-30 1139 992)" fill="#F4EBDC" fill-opacity="0.05"/>
<rect x="1141.05" y="992.549" width="47" height="47" transform="rotate(-30 1141.05 992.549)" stroke="#C05640" stroke-opacity="0.3" stroke-width="3"/>
<defs>
<linearGradient id="paint0_linear_402_191" x1="113.454" y1="656.455" x2="502.363" y2="1045.36" gradientUnits="userSpaceOnUse">
<stop offset="0.75" stop-color="#2B4A52"/>
<stop offset="1" stop-color="#2B4A52" stop-opacity="0"/>
</linearGradient>
<linearGradient id="paint1_linear_402_191" x1="147.099" y1="691.656" x2="465.297" y2="1009.85" gradientUnits="userSpaceOnUse">
<stop offset="0.75" stop-color="#2B4A52"/>
<stop offset="1" stop-color="#2B4A52" stop-opacity="0"/>
</linearGradient>
<linearGradient id="paint2_linear_402_191" x1="184.744" y1="727.3" x2="432.231" y2="974.788" gradientUnits="userSpaceOnUse">
<stop offset="0.75" stop-color="#2B4A52"/>
<stop offset="1" stop-color="#2B4A52" stop-opacity="0"/>
</linearGradient>
<linearGradient id="paint3_linear_402_191" x1="212.388" y1="761.945" x2="389.165" y2="938.721" gradientUnits="userSpaceOnUse">
<stop offset="0.75" stop-color="#2B4A52"/>
<stop offset="1" stop-color="#2B4A52" stop-opacity="0"/>
</linearGradient>
<linearGradient id="paint4_linear_402_191" x1="248.033" y1="797.589" x2="354.099" y2="903.655" gradientUnits="userSpaceOnUse">
<stop offset="0.75" stop-color="#2B4A52"/>
<stop offset="1" stop-color="#2B4A52" stop-opacity="0"/>
</linearGradient>
</defs>
</svg>
