<svg xmlns="http://www.w3.org/2000/svg" width="120" height="120" viewBox="0 0 120 120" fill="none">
  <path d="M44.106 0.779892C43.1052 1.1291 41.778 2.3159 41.2428 3.31789C41.0568 3.66709 40.4508 7.1123 39.8928 10.9535C39.3336 14.7947 38.8452 17.9603 38.7984 17.9843C38.7516 18.0311 37.9368 18.4499 36.9828 18.9383C36.0288 19.4267 34.4448 20.3351 33.468 20.9399C32.49 21.5687 31.6056 22.0811 31.4892 22.0811C31.3728 22.0811 28.3932 20.9171 24.8784 19.5203C19.71 17.4719 18.2208 16.9595 17.2896 16.9595C15.9396 16.9595 14.5428 17.5643 13.6584 18.4955C13.3092 18.8675 10.422 23.7107 7.2336 29.2271C1.1556 39.7271 0.898802 40.3091 1.3416 42.1475C1.7376 43.8239 2.5056 44.6147 8.1396 48.9911C11.8644 51.9239 13.68 53.4611 13.5876 53.6939C13.518 53.8571 13.4712 55.7891 13.4712 57.9539V61.8887L10.8624 63.9371C4.2276 69.1283 2.3892 70.6655 1.9932 71.3867C1.3176 72.5507 1.0848 73.8311 1.3644 75.0647C1.7136 76.6247 12.7716 95.7371 13.9584 96.8315C15.006 97.8323 16.566 98.3219 17.8932 98.1119C18.4056 98.0423 21.222 97.0175 24.132 95.8535C27.042 94.6895 29.8824 93.5483 30.4644 93.3155L31.512 92.8967L34.0032 94.4567C35.3772 95.3183 37.0296 96.2723 37.6812 96.5747C38.4264 96.9239 38.892 97.2959 38.9616 97.5995C39.0312 97.8791 39.45 100.765 39.8928 104.024C40.3356 107.283 40.824 110.403 40.9632 110.915C41.2896 112.148 42.3372 113.429 43.5708 114.104C44.5248 114.617 44.6652 114.617 54.2556 114.617H63.9864L64.7076 113.871C65.8248 112.777 65.7324 111.8 64.3344 109.634C62.3556 106.561 60.75 102.674 59.9112 98.9027C59.3988 96.5975 59.19 90.2423 59.5392 87.9611C59.6784 87.0059 60.0276 85.3067 60.3072 84.1895C60.726 82.4903 60.75 82.0475 60.4932 81.4655C60.0048 80.2547 59.3988 80.0459 56.256 79.9523C54.3708 79.8827 52.7172 79.6967 51.4368 79.3703C43.2444 77.3003 36.7956 70.5959 34.9344 62.2379C34.3752 59.7239 34.446 55.0451 35.0976 52.4843C35.6328 50.2259 37.17 46.7807 38.4036 44.9879C41.22 40.8671 45.9924 37.4915 50.9748 36.0251C53.442 35.3267 58.5408 35.1407 61.218 35.6987C69.3888 37.3511 75.9072 43.4039 78.3288 51.5759C78.7716 53.1119 78.9576 54.4391 79.0968 56.8607L79.26 60.0731L80.028 60.7715C80.9352 61.5863 81.378 61.5863 84.8232 60.7475C87.7332 60.0731 91.5048 59.8859 95.2296 60.2591C98.6748 60.6083 99.1404 60.4919 99.9084 59.0723C100.258 58.4207 100.327 57.8387 100.258 55.7435L100.188 53.1827L105.146 49.3187C107.87 47.1767 110.407 45.1283 110.803 44.7563C112.339 43.3127 112.829 40.8455 111.967 38.9603C111.246 37.3775 100.514 18.9635 100.002 18.4283C99.234 17.5667 97.7208 16.9619 96.3708 16.9619C95.37 16.9619 94.0668 17.4047 88.8048 19.5227C85.3128 20.9195 82.3332 22.0835 82.194 22.0835C82.0536 22.0835 81.0528 21.5243 80.0052 20.8259C78.9348 20.1503 77.3052 19.1963 76.3968 18.7307C75.4656 18.2651 74.6976 17.7767 74.6976 17.6603C74.6976 16.5899 72.7656 4.2983 72.4632 3.5291C72.0204 2.3423 70.6476 1.0847 69.3672 0.7127C67.968 0.267502 45.3168 0.338295 44.106 0.779892Z" fill="#2B4A52"/>
  <path d="M88.4304 65.1707C76.3716 66.5675 66.5244 75.9959 64.5684 87.9623C62.6832 99.6023 68.6424 111.288 79.188 116.62C92.2248 123.232 107.984 118.459 115.295 105.702C119.578 98.2055 119.974 88.6379 116.273 80.8631C112.129 72.0851 103.957 66.2423 94.3668 65.1479C91.992 64.8923 90.9216 64.8923 88.4304 65.1707ZM82.308 80.0471C82.6572 80.1863 84.8688 82.2119 87.1968 84.5399L91.4568 88.7771L95.694 84.5399C98.0448 82.2119 100.256 80.1863 100.63 80.0471C102.445 79.3715 103.981 80.8151 103.842 83.0495C103.795 83.4455 102.468 84.9587 99.4416 88.0079L95.088 92.3855L99.3024 96.6455C101.63 98.9735 103.656 101.185 103.795 101.557C104.308 102.954 103.027 104.723 101.514 104.723C100.536 104.723 99.744 104.094 95.6472 99.9731L91.5732 95.8763L87.4992 99.9275C85.2648 102.139 83.1696 104.141 82.8432 104.351C81.8892 104.98 80.8176 104.839 79.9104 103.932C79.026 103.048 78.8856 102.116 79.4448 101.046C79.6308 100.697 81.6336 98.5775 83.868 96.3431L87.9648 92.2691L83.658 87.9623C80.0496 84.3539 79.3044 83.4923 79.212 82.8167C79.026 81.7223 79.6308 80.5823 80.5848 80.1635C81.4932 79.7675 81.4932 79.7675 82.308 80.0471Z" fill="#2B4A52"/>
</svg>
